<?xml version="1.0" standalone="no"?>
<!DOCTYPE svg PUBLIC "-//W3C//DTD SVG 20010904//EN"
 "http://www.w3.org/TR/2001/REC-SVG-20010904/DTD/svg10.dtd">
<svg version="1.0" xmlns="http://www.w3.org/2000/svg"
 width="200.000000pt" height="200.000000pt" viewBox="0 0 200.000000 200.000000"
 preserveAspectRatio="xMidYMid meet">
<metadata>
Created by potrace 1.11, written by Peter Selinger 2001-2013
</metadata>
<g transform="translate(0.000000,200.000000) scale(0.100000,-0.100000)"
fill="#000000" stroke="none">
<path d="M0 1000 l0 -1000 1000 0 1000 0 0 1000 0 1000 -1000 0 -1000 0 0
-1000z m1688 416 c33 -30 37 -40 36 -79 -1 -59 -18 -86 -176 -280 -220 -271
-227 -277 -348 -277 -84 0 -78 -33 -50 275 26 294 30 265 -30 265 l-50 0 0
-45 c0 -92 -63 -166 -200 -235 -44 -22 -122 -52 -173 -66 -50 -14 -98 -28
-106 -32 -7 -4 -26 -41 -40 -82 l-27 -75 -87 -3 -86 -3 13 38 c44 121 156 437
156 440 0 2 38 3 85 3 47 0 85 -1 85 -3 0 -2 -18 -51 -39 -111 l-39 -107 31 7
c18 3 55 18 82 31 106 53 145 99 145 171 0 66 0 66 -311 72 l-278 5 35 58 36
57 272 0 c205 0 285 -4 326 -14 48 -13 56 -13 66 0 9 11 39 14 133 14 136 0
176 -12 187 -56 4 -14 -4 -129 -16 -255 -12 -127 -21 -232 -18 -234 2 -3 66
72 141 165 132 163 136 170 112 176 -58 14 -94 100 -64 155 17 32 70 59 117
59 34 0 49 -6 80 -34z"/>
</g>
</svg>
